# xmcd
#
# Track frame offsets: 
#        150
#        17412
#        34779
#        49217
#        69439
#        83225
#        103946
#        123528
#        142667
#        163101
#        180879
#        199384
#        216589
#        231204
#        253065
#        268043
#        287867
#        303237
#        320997
#        334160
#
# Disc length: 4693 seconds
#
# Revision: 3
# Processed by: cddbd v1.5.2PL0 Copyright (c) Steve Scherf et al.
# Submitted via: ExactAudioCopy v1.2
#
DISCID=2f125314
DTITLE=Charlie Landsborough - Reflections, His Classic Love Songs
DYEAR=2003
DGENRE=Country
TTITLE0=I Will Love You All My Life
TTITLE1=The Twelfth Of Never
TTITLE2=Still Blue
TTITLE3=Walking On My Memories
TTITLE4=Lovers Chain
TTITLE5=If Only
TTITLE6=Heaven Knows
TTITLE7=Love You Every Second
TTITLE8=I Want Someone Who Will Love Me
TTITLE9=One True Love
TTITLE10=Why Worry
TTITLE11=I Still Can't Say Goodbye
TTITLE12=Angels With One Wing
TTITLE13=Like I Used To Do
TTITLE14=It'll Be Her
TTITLE15=It's Raining Outside
TTITLE16=Part Of Me
TTITLE17=I Dreamed I Was In Heaven
TTITLE18=One More Time
TTITLE19=What Colour Is The Wind
EXTD=
EXTT0=
EXTT1=
EXTT2=
EXTT3=
EXTT4=
EXTT5=
EXTT6=
EXTT7=
EXTT8=
EXTT9=
EXTT10=
EXTT11=
EXTT12=
EXTT13=
EXTT14=
EXTT15=
EXTT16=
EXTT17=
EXTT18=
EXTT19=
PLAYORDER=
